<svg xmlns="http://www.w3.org/2000/svg" xmlns:xlink="http://www.w3.org/1999/xlink" viewBox="0 0 490.93 467.58"><defs><style>.a,.c,.d{fill:none;}.b{clip-path:url(#a);}.c,.d{stroke:#a58e3c;stroke-linecap:round;stroke-width:0.5px;}.c{stroke-linejoin:round;stroke-dasharray:0 5;}.d{stroke-miterlimit:10;}</style><clipPath id="a"><rect class="a" x="2.92" y="2.17" width="487.71" height="465.39"/></clipPath></defs><title>starburst</title><g class="b"><line class="c" x1="243.38" y1="-118.12" x2="243.38" y2="610.85"/><line class="d" x1="243.41" y1="46.23" x2="243.41" y2="445.94"/><line class="d" x1="214.53" y1="-117.23" x2="272.23" y2="609.96"/><line class="c" x1="186.58" y1="-113.63" x2="300.18" y2="606.36"/><line class="d" x1="212.22" y1="48.69" x2="274.52" y2="443.47"/><line class="d" x1="158.22" y1="-108.22" x2="328.54" y2="600.95"/><line class="c" x1="131.17" y1="-100.28" x2="355.59" y2="593.01"/><line class="d" x1="181.8" y1="56.02" x2="304.85" y2="436.16"/><line class="d" x1="104" y1="-90.48" x2="382.76" y2="583.22"/><line class="c" x1="78.53" y1="-78.39" x2="408.23" y2="571.12"/><line class="d" x1="152.89" y1="68.03" x2="333.67" y2="424.17"/><line class="d" x1="53.22" y1="-64.45" x2="433.54" y2="557.18"/><line class="c" x1="29.95" y1="-48.51" x2="456.81" y2="541.24"/><line class="d" x1="126.21" y1="84.44" x2="360.27" y2="407.8"/><line class="d" x1="7.12" y1="-30.76" x2="479.64" y2="523.5"/><line class="c" x1="-13.38" y1="-11.36" x2="500.14" y2="504.09"/><line class="d" x1="102.42" y1="104.83" x2="383.99" y2="387.46"/><line class="d" x1="-33.16" y1="9.75" x2="519.92" y2="482.99"/><line class="c" x1="-50.39" y1="32.13" x2="537.15" y2="460.6"/><line class="d" x1="82.1" y1="128.7" x2="404.25" y2="363.64"/><line class="d" x1="-66.63" y1="56.08" x2="553.39" y2="436.65"/><line class="c" x1="-80.16" y1="80.89" x2="566.92" y2="411.84"/><line class="d" x1="65.75" y1="155.48" x2="420.55" y2="336.94"/><line class="d" x1="-92.47" y1="107.1" x2="579.23" y2="385.63"/><line class="c" x1="-101.96" y1="133.73" x2="588.72" y2="359"/><line class="d" x1="53.77" y1="184.49" x2="432.48" y2="308"/><line class="d" x1="-110.04" y1="161.55" x2="596.8" y2="331.18"/><line class="c" x1="-115.26" y1="189.35" x2="602.02" y2="303.38"/><line class="d" x1="46.46" y1="215.02" x2="439.76" y2="277.55"/><line class="d" x1="-118.9" y1="218.09" x2="605.67" y2="274.64"/><line class="c" x1="-119.74" y1="246.37" x2="606.5" y2="246.37"/><line class="d" x1="44" y1="246.33" x2="442.2" y2="246.33"/><line class="d" x1="-118.85" y1="275.33" x2="605.61" y2="217.4"/><line class="c" x1="-115.26" y1="303.38" x2="602.02" y2="189.35"/><line class="d" x1="46.45" y1="277.64" x2="439.75" y2="215.11"/><line class="d" x1="-109.88" y1="331.85" x2="596.64" y2="160.88"/><line class="c" x1="-101.96" y1="359" x2="588.72" y2="133.73"/><line class="d" x1="53.75" y1="308.18" x2="432.46" y2="184.66"/><line class="d" x1="-92.2" y1="386.27" x2="578.97" y2="106.47"/><line class="c" x1="-80.16" y1="411.84" x2="566.92" y2="80.89"/><line class="d" x1="65.71" y1="337.19" x2="420.52" y2="155.73"/><line class="d" x1="-66.27" y1="437.24" x2="553.03" y2="55.49"/><line class="c" x1="-50.39" y1="460.6" x2="537.15" y2="32.13"/><line class="d" x1="82.06" y1="363.97" x2="404.21" y2="129.03"/><line class="d" x1="-32.71" y1="483.51" x2="519.47" y2="9.22"/><line class="c" x1="-13.38" y1="504.09" x2="500.14" y2="-11.36"/><line class="d" x1="102.37" y1="387.86" x2="383.94" y2="105.22"/><line class="d" x1="7.65" y1="523.94" x2="479.11" y2="-31.21"/><line class="c" x1="29.95" y1="541.24" x2="456.81" y2="-48.51"/><line class="d" x1="126.16" y1="408.26" x2="360.22" y2="84.89"/><line class="d" x1="53.81" y1="557.54" x2="432.95" y2="-64.81"/><line class="c" x1="78.53" y1="571.12" x2="408.23" y2="-78.39"/><line class="d" x1="152.83" y1="424.67" x2="333.61" y2="68.53"/><line class="d" x1="104.64" y1="583.48" x2="382.12" y2="-90.75"/><line class="c" x1="131.17" y1="593.01" x2="355.59" y2="-100.28"/><line class="d" x1="181.74" y1="436.69" x2="304.79" y2="56.55"/><line class="d" x1="158.89" y1="601.11" x2="327.88" y2="-108.38"/><line class="c" x1="186.58" y1="606.36" x2="300.18" y2="-113.63"/><line class="d" x1="212.16" y1="444.03" x2="274.45" y2="49.25"/><line class="d" x1="215.21" y1="610.01" x2="271.55" y2="-117.28"/></g></svg>